<svg width="256" height="256" viewBox="0 0 44 44" version="1.1" xmlns="http://www.w3.org/2000/svg" xmlns:xlink="http://www.w3.org/1999/xlink" xml:space="preserve" xmlns:serif="http://www.serif.com/" style="fill-rule:evenodd;clip-rule:evenodd;stroke-linejoin:round;stroke-miterlimit:2;">
    <g transform="matrix(1,0,0,1,2.854,9.4985)">
        <path d="M30.826,24L36.051,24C37.279,24.001 38.291,22.99 38.292,21.762C38.291,20.534 37.28,19.523 36.052,19.523C36.052,19.523 30.826,19.523 30.826,19.523C29.598,19.523 28.587,20.534 28.586,21.762C28.587,22.99 29.598,24 30.826,24ZM7.465,24L2.241,24C1.013,24.001 0.001,22.99 0,21.762C0.001,20.534 1.012,19.523 2.24,19.523L7.465,19.523C7.492,19.522 7.52,19.521 7.547,19.521C8.776,19.521 9.787,20.533 9.787,21.761C9.787,22.99 8.776,24.002 7.547,24.002C7.52,24.002 7.492,24.001 7.465,24ZM21.257,23.986L17.004,23.986C16.977,23.987 16.949,23.988 16.922,23.988C15.693,23.988 14.682,22.976 14.682,21.748C14.682,20.519 15.693,19.508 16.922,19.508C16.949,19.508 16.977,19.508 17.004,19.509L21.257,19.509C21.284,19.508 21.312,19.508 21.339,19.508C22.568,19.508 23.579,20.519 23.579,21.748C23.579,22.976 22.568,23.988 21.339,23.988C21.312,23.988 21.284,23.987 21.257,23.986Z" style="fill:rgb(242,62,148);fill-rule:nonzero;"/>
    </g>
    <g transform="matrix(1,0,0,1,2.854,9.4985)">
        <path d="M28.796,17.558L33.826,17.558C33.853,17.559 33.881,17.56 33.908,17.56C35.137,17.56 36.148,16.548 36.148,15.32C36.148,14.091 35.137,13.08 33.908,13.08C33.881,13.08 33.853,13.08 33.826,13.081L28.796,13.081C28.769,13.08 28.741,13.08 28.714,13.08C27.485,13.08 26.474,14.091 26.474,15.32C26.474,16.548 27.485,17.56 28.714,17.56C28.741,17.56 28.769,17.559 28.796,17.558ZM9.41,17.558L4.38,17.558C4.353,17.559 4.325,17.56 4.298,17.56C3.069,17.56 2.058,16.548 2.058,15.32C2.058,14.091 3.069,13.08 4.298,13.08C4.325,13.08 4.353,13.08 4.38,13.081L9.41,13.081C9.437,13.08 9.465,13.08 9.492,13.08C10.721,13.08 11.732,14.091 11.732,15.32C11.732,16.548 10.721,17.56 9.492,17.56C9.465,17.56 9.437,17.559 9.41,17.558ZM22.875,17.544L15.389,17.544C14.161,17.544 13.15,16.533 13.149,15.305C13.15,14.077 14.161,13.066 15.389,13.066L22.875,13.066C24.072,13.11 25.033,14.107 25.033,15.304C25.033,16.502 24.072,17.499 22.875,17.543L22.875,17.544Z" style="fill:rgb(105,39,218);fill-rule:nonzero;"/>
    </g>
    <g transform="matrix(1,0,0,1,2.854,9.4985)">
        <path d="M22.657,10.92L31.597,10.92C31.624,10.921 31.652,10.922 31.679,10.922C32.908,10.922 33.919,9.91 33.919,8.682C33.919,7.453 32.908,6.441 31.679,6.441C31.652,6.441 31.624,6.442 31.597,6.443L22.657,6.443C22.63,6.442 22.602,6.441 22.575,6.441C21.346,6.441 20.335,7.453 20.335,8.682C20.335,9.91 21.346,10.922 22.575,10.922C22.602,10.922 22.63,10.921 22.657,10.92ZM16.16,10.92L6.608,10.92C6.581,10.921 6.553,10.922 6.526,10.922C5.297,10.922 4.286,9.91 4.286,8.682C4.286,7.453 5.297,6.441 6.526,6.441C6.553,6.441 6.581,6.442 6.608,6.443L16.16,6.443C16.187,6.442 16.215,6.441 16.242,6.441C17.471,6.441 18.482,7.453 18.482,8.682C18.482,9.91 17.471,10.922 16.242,10.922C16.215,10.922 16.187,10.921 16.16,10.92Z" style="fill:rgb(21,112,239);fill-rule:nonzero;"/>
    </g>
    <g transform="matrix(1,0,0,1,2.854,9.4985)">
        <path d="M29.448,4.477L24.407,4.477C23.179,4.478 22.167,3.467 22.166,2.239C22.167,1.011 23.178,-0 24.406,-0C24.406,-0 29.448,0 29.448,0C29.475,-0.001 29.503,-0.002 29.53,-0.002C30.759,-0.002 31.77,1.01 31.77,2.238C31.77,3.467 30.759,4.479 29.53,4.479C29.503,4.479 29.475,4.478 29.448,4.477ZM13.792,4.477L8.751,4.477C8.724,4.478 8.696,4.479 8.669,4.479C7.44,4.479 6.429,3.467 6.429,2.239C6.429,1.01 7.44,-0.001 8.669,-0.001C8.696,-0.001 8.723,-0.001 8.75,-0L13.791,0C13.818,-0.001 13.846,-0.002 13.873,-0.002C15.102,-0.002 16.113,1.01 16.113,2.238C16.113,3.467 15.102,4.479 13.873,4.479C13.846,4.479 13.818,4.478 13.791,4.477L13.792,4.477Z" style="fill:rgb(34,204,238);fill-rule:nonzero;"/>
    </g>
</svg>
